<?xml version="1.0" encoding="UTF-8" standalone="no"?>
<!-- Created with Inkscape (http://www.inkscape.org/) -->

<svg
   xmlns:dc="http://purl.org/dc/elements/1.1/"
   xmlns:cc="http://creativecommons.org/ns#"
   xmlns:rdf="http://www.w3.org/1999/02/22-rdf-syntax-ns#"
   xmlns:svg="http://www.w3.org/2000/svg"
   xmlns="http://www.w3.org/2000/svg"
   xmlns:sodipodi="http://sodipodi.sourceforge.net/DTD/sodipodi-0.dtd"
   xmlns:inkscape="http://www.inkscape.org/namespaces/inkscape"
   width="64"
   height="64"
   id="svg2"
   version="1.1"
   inkscape:version="0.48.4 r9939"
   sodipodi:docname="NGControl.svg"
   inkscape:export-filename="/home/sergey/PROGRAMMING/Qt/NGControl/NGControl/Resources/NGControl.png"
   inkscape:export-xdpi="90"
   inkscape:export-ydpi="90">
  <defs
     id="defs4">
    <clipPath
       clipPathUnits="userSpaceOnUse"
       id="clipPath3978">
      <path
         transform="matrix(1.816373,0,0,1.816373,-30.842373,958.24131)"
         d="m 50.25509,34.2005 a 15.657365,15.657365 0 1 1 -31.31473,0 15.657365,15.657365 0 1 1 31.31473,0 z"
         sodipodi:ry="15.657365"
         sodipodi:rx="15.657365"
         sodipodi:cy="34.2005"
         sodipodi:cx="34.597725"
         id="path3980"
         style="fill:none;stroke:#000000;stroke-width:0.05398866;stroke-opacity:1;display:inline"
         sodipodi:type="arc" />
    </clipPath>
    <clipPath
       clipPathUnits="userSpaceOnUse"
       id="clipPath4002">
      <path
         sodipodi:type="arc"
         style="fill:none;stroke:#ff0000;stroke-width:0.1;stroke-opacity:1"
         id="path4004"
         sodipodi:cx="13.482142"
         sodipodi:cy="36.94643"
         sodipodi:rx="27.053572"
         sodipodi:ry="27.053572"
         d="m 40.535714,36.94643 a 27.053572,27.053572 0 1 1 -54.107143,0 27.053572,27.053572 0 1 1 54.107143,0 z"
         transform="matrix(1.0879157,0,0,1.0879157,17.332566,-7.6895865)" />
    </clipPath>
  </defs>
  <sodipodi:namedview
     id="base"
     pagecolor="#ffffff"
     bordercolor="#666666"
     borderopacity="1.0"
     inkscape:pageopacity="0.0"
     inkscape:pageshadow="2"
     inkscape:zoom="5.6"
     inkscape:cx="42.575486"
     inkscape:cy="23.517322"
     inkscape:document-units="px"
     inkscape:current-layer="layer3"
     showgrid="false"
     inkscape:snap-bbox="true"
     inkscape:bbox-paths="true"
     inkscape:bbox-nodes="true"
     inkscape:snap-bbox-edge-midpoints="true"
     inkscape:snap-bbox-midpoints="true"
     inkscape:object-paths="true"
     inkscape:snap-intersection-paths="true"
     inkscape:object-nodes="true"
     inkscape:snap-smooth-nodes="true"
     inkscape:snap-midpoints="true"
     inkscape:snap-object-midpoints="true"
     inkscape:snap-center="true"
     inkscape:snap-page="true"
     inkscape:window-width="1317"
     inkscape:window-height="744"
     inkscape:window-x="49"
     inkscape:window-y="24"
     inkscape:window-maximized="1" />
  <metadata
     id="metadata7">
    <rdf:RDF>
      <cc:Work
         rdf:about="">
        <dc:format>image/svg+xml</dc:format>
        <dc:type
           rdf:resource="http://purl.org/dc/dcmitype/StillImage" />
        <dc:title></dc:title>
      </cc:Work>
    </rdf:RDF>
  </metadata>
  <g
     inkscape:label="Layer 1"
     inkscape:groupmode="layer"
     id="layer1"
     transform="translate(0,-988.36218)"
     style="display:inline">
    <rect
       style="fill:#aa4400;stroke:#000000;stroke-opacity:1"
       id="rect2987"
       width="64"
       height="64"
       x="0"
       y="0"
       transform="translate(0,988.36218)"
       ry="5"
       rx="5" />
  </g>
  <g
     inkscape:groupmode="layer"
     id="layer2"
     inkscape:label="Слой"
     style="display:inline" />
  <g
     inkscape:groupmode="layer"
     id="layer3"
     inkscape:label="Слой#1"
     style="display:inline">
    <path
       sodipodi:type="arc"
       style="fill:#2aff2a;stroke:#000000;stroke-width:1.07715762;stroke-opacity:1;display:inline"
       id="path2991"
       sodipodi:cx="34.597725"
       sodipodi:cy="34.2005"
       sodipodi:rx="15.657365"
       sodipodi:ry="15.657365"
       d="m 50.25509,34.2005 a 15.657365,15.657365 0 1 1 -31.31473,0 15.657365,15.657365 0 1 1 31.31473,0 z"
       transform="matrix(1.8567384,0,0,1.8567384,-32.238924,-31.50138)" />
    <path
       transform="translate(0,-988.36218)"
       style="fill:none;stroke:#ff0000;stroke-width:1px;stroke-linecap:butt;stroke-linejoin:miter;stroke-opacity:1;display:inline"
       d="m 2.573827,1011.2708 c 0,1.5994 0,3.1988 0,4.7982 0,1.8519 0,3.7039 0,5.5558 0,0.5893 0,1.1786 0,1.7678 0,0.1684 -0.04083,0.3418 0,0.5051 0.04565,0.1826 0.252538,0.3168 0.252538,0.5051 0,0.347 -0.195479,0.6678 -0.252538,1.0101 -0.02768,0.1661 0,0.3367 0,0.5051 0,0.2525 0,0.5051 0,0.7576 0,1.0943 0,2.1887 0,3.283 0,0.8418 0,1.6836 0,2.5254 0,0.06 -0.0283,0.9535 0,1.0101 0.05324,0.1065 0.252538,0.1335 0.252538,0.2526 0,0.119 -0.214892,0.1396 -0.252538,0.2525 -0.04789,0.1437 0,1.0249 0,1.2627 0,0.084 -0.05952,0.193 0,0.2525 0.05952,0.06 0.193014,-0.06 0.252538,0 0.0081,0.01 0,0.6964 0,0.7577 0,0.061 -0.0081,0.7494 0,0.7576 0.336717,0.3367 0.252538,-0.4209 0.252538,0.2525 0,0.061 0.0081,0.7495 0,0.7576 -0.05952,0.06 -0.252538,0.084 -0.252538,0 0,-0.1683 0.429784,0.1506 0.505076,0 0.150585,-0.3011 -0.08167,-0.6835 0,-1.0101 0.04565,-0.1826 0.221593,-0.3194 0.252538,-0.5051 0.06565,-0.3939 0,-1.5155 0,-2.0203 0,-0.2526 -0.07986,-0.518 0,-0.7576 0.03765,-0.113 0.199299,-0.1461 0.252538,-0.2526 0.03765,-0.075 -0.03765,-0.1772 0,-0.2525 0.05324,-0.1065 0.214892,-0.1396 0.252539,-0.2525 0.05324,-0.1598 -0.04083,-0.3418 0,-0.5051 0.04565,-0.1826 0.193014,-0.3265 0.252538,-0.5051 0.02662,-0.08 -0.02662,-0.1727 0,-0.2525 -0.152212,-0.4571 0.409097,-0.4697 0.505076,-0.7576 0.0062,-0.019 0.02772,-1.4598 0,-1.5153 -0.05324,-0.1065 -0.252538,-0.1335 -0.252538,-0.2525 0,-0.1191 0.199298,-0.1461 0.252538,-0.2526 0.03765,-0.075 0,-0.1683 0,-0.2525 0,-0.4209 0,-0.8418 0,-1.2627 0,-0.1683 -0.05324,-0.3453 0,-0.5051 0.03765,-0.1129 0.214892,-0.1396 0.252538,-0.2525 0.0385,-0.1155 -0.05619,-0.8978 0,-1.0101 0.05324,-0.1065 0.199299,-0.1461 0.252538,-0.2526 0.0332,-0.066 0,-0.8781 0,-1.0101 0,-0.1711 0.03835,-1.6528 0,-1.7678 -0.03765,-0.1129 -0.199298,-0.1461 -0.252538,-0.2525 -0.03765,-0.075 0,-0.1684 0,-0.2526 0,-0.084 -0.05952,-0.193 0,-0.2525 0.05952,-0.06 0.193014,0.06 0.252538,0 0.05163,-0.052 -0.05006,-0.6575 0,-0.7576 0.05324,-0.1065 0.214892,-0.1396 0.252538,-0.2526 0.05324,-0.1597 0,-0.3367 0,-0.505 0,-0.084 -0.03765,-0.1773 0,-0.2526 0.05324,-0.1065 0.199299,-0.146 0.252539,-0.2525 0.101015,-0.2021 -0.101016,-0.5556 0,-0.7576 0.05324,-0.1065 0.214892,-0.1396 0.252538,-0.2526 0.05324,-0.1597 -0.04083,-0.3417 0,-0.5051 0.06644,-0.2657 0.43864,-0.7444 0.505076,-1.0101 0.04083,-0.1633 -0.04083,-0.3418 0,-0.5051 0.04565,-0.1826 0.206885,-0.3224 0.252538,-0.5051 0.04686,-0.1874 -0.07751,-0.9326 0,-1.0101 0.05952,-0.059 0.193014,0.059 0.252538,0 0.05163,-0.052 -0.05006,-0.6575 0,-0.7576 0.05324,-0.1065 0.199299,-0.1461 0.252538,-0.2526 0.03765,-0.075 0,-0.1683 0,-0.2525 0,-0.1684 0,-0.3367 0,-0.5051 0,-0.084 0.02662,-0.1727 0,-0.2525 -0.05952,-0.1786 -0.193014,-0.3265 -0.252538,-0.5051 -0.05324,-0.1597 0,-0.3367 0,-0.5051 0,-0.4209 0,-0.8418 0,-1.2627 0,-0.8418 0,-1.6835 0,-2.5253 0,-0.2924 0.05637,-1.0373 0,-1.2627 -0.04565,-0.1826 -0.206885,-0.3225 -0.252538,-0.5051 -0.159968,-0.6399 0.103558,-0.4142 0.252538,-1.0102 0.04926,-0.197 0,-1.2204 0,-1.5152 0,-0.3367 0,-0.6734 0,-1.0101 0,-0.084 0,-0.3368 0,-0.2526 0,1.1581 -0.05324,-0.2662 0.252538,1.2627 0.03302,0.1651 0,0.3367 0,0.5051 0,0.5892 0,1.1785 0,1.7678 0,0.8417 0,1.6835 0,2.5253 0,0.2526 0.04953,0.51 0,0.7576 -0.03691,0.1846 -0.215623,0.3206 -0.252538,0.5051 -0.08254,0.4127 0,0.8418 0,1.2627 0,1.2627 0,2.5254 0,3.7881 0,0.6734 0,1.3469 0,2.0203 0,0.06 -0.0283,0.9535 0,1.0101 0.05324,0.1065 0.214892,0.1396 0.252538,0.2526 0.0069,0.021 0.03169,1.1676 0,1.2627 -0.05952,0.1785 -0.252538,0.3168 -0.252538,0.5051 0,0.099 0.473199,0.2844 0.252538,0.505 -0.133099,0.1331 -0.371977,0.1195 -0.505076,0.2526 -0.05952,0.059 0,0.1683 0,0.2525 0,0.2525 0,0.5051 0,0.7576 0,0.1684 -0.04083,0.3418 0,0.5051 0.06648,0.2659 0.352584,0.4575 0.252538,0.7576 -0.05952,0.1786 -0.206885,0.3225 -0.252538,0.5051 -0.04083,0.1633 0,0.3367 0,0.5051 0,0.084 0.03765,0.1772 0,0.2525 -0.312062,0.6241 -0.252538,-0.087 -0.252538,0.5051 0,0.084 -0.02662,0.1727 0,0.2525 0.05952,0.1786 0.193014,0.3265 0.252538,0.5051 0.08267,0.248 -0.08568,1.3439 0,1.5152 0.03765,0.075 0.168359,0 0.252538,0 0.08418,0.1684 0.193015,0.3265 0.252538,0.5051 0.04902,0.147 0,1.3415 0,1.5152 0,0.06 0.0283,0.9536 0,1.0102 -0.05324,0.1065 -0.199298,0.146 -0.252538,0.2525 -0.03765,0.075 0,0.1684 0,0.2526 0,0.084 0,0.1683 0,0.2525 0,0.4209 0,0.8418 0,1.2627 0,0.084 0,0.1683 0,0.2525 0,0.084 0.03765,0.1773 0,0.2526 -0.05324,0.1064 -0.252538,0.1334 -0.252538,0.2525 0,0.1882 0.193014,0.3265 0.252538,0.5051 0.02662,0.08 -0.03765,0.1772 0,0.2525 0.05324,0.1065 0.199299,0.1461 0.252538,0.2525 0.07529,0.1506 -0.07529,0.3545 0,0.5051 0.05324,0.1065 0.199299,0.1461 0.252539,0.2526 0.101015,0.202 -0.101016,0.5555 0,0.7576 0.05324,0.1065 0.199298,0.146 0.252538,0.2525 0.07546,0.1509 -0.166244,0.5051 0.252538,0.5051 0.08418,0 0,-0.1684 0,-0.2525 0,-0.2526 0,-0.5051 0,-0.7577 0,-0.2612 -0.05952,-0.349 0.252538,-0.505 0.07529,-0.038 0.193014,0.059 0.252538,0 0.119048,-0.1191 -0.07529,-0.3545 0,-0.5051 0.05324,-0.1065 0.199298,-0.1461 0.252538,-0.2526 0.11672,-0.2334 -0.223347,-0.6408 -0.252538,-0.7576 -0.04083,-0.1633 0,-0.3367 0,-0.505 0,-0.1684 0,-0.3368 0,-0.5051 0,-0.5051 0,-1.0102 0,-1.5152 0,-0.3305 -0.05696,-0.9779 0,-1.2627 0.05221,-0.2611 0.214892,-0.4941 0.252538,-0.7577 0.04762,-0.3333 0,-0.6734 0,-1.0101 0,-0.2525 0,-0.5051 0,-0.7576 0,-0.2526 -0.03571,-0.5076 0,-0.7576 0.04908,-0.3436 0.203454,-0.6666 0.252538,-1.0102 0.03571,-0.25 -0.04152,-0.5085 0,-0.7576 0.04376,-0.2626 0.179408,-0.5017 0.252538,-0.7576 0.09535,-0.3337 0.195479,-0.6678 0.252539,-1.0102 0.02768,-0.166 0,-0.3367 0,-0.505 0,-0.3368 0,-0.6735 0,-1.0102 0,-0.1684 -0.05324,-0.3454 0,-0.5051 0.03765,-0.1129 0.214892,-0.1396 0.252538,-0.2525 0.137809,-0.4134 -0.164656,-0.9112 -0.252538,-1.2627 -0.02042,-0.082 0,-0.1684 0,-0.2525 0,-0.3368 -0.06604,-0.68 0,-1.0102 0.130627,-0.6531 0.593304,0.2647 0.252538,-0.7576 -0.08214,-0.2464 -0.41512,-0.1799 -0.252538,-0.5051 0.05324,-0.1065 0.199298,-0.146 0.252538,-0.2525 0.03765,-0.075 -0.05952,-0.193 0,-0.2526 0.05952,-0.059 0.214892,0.075 0.252538,0 0.07529,-0.1505 -0.07529,-0.3545 0,-0.505 0.03765,-0.075 0.252538,0.084 0.252538,0 0,-0.2662 -0.252538,-0.4915 -0.252538,-0.7576 0,-0.4578 0.31283,-0.4693 0.505076,-0.7577 0.104412,-0.1566 0.193014,-0.3265 0.252538,-0.505 0.07986,-0.2396 -0.06125,-0.5127 0,-0.7577 0.04565,-0.1826 0.193015,-0.3265 0.252538,-0.505 0.07576,-0.2273 -0.07576,-0.5304 0,-0.7576 0.05952,-0.1786 0.221594,-0.3195 0.252539,-0.5051 0.05536,-0.3322 0,-0.6735 0,-1.0102 0,-0.1683 0.04083,-0.3417 0,-0.5051 -0.04565,-0.1826 -0.221594,-0.3194 -0.252539,-0.505 -0.05536,-0.3322 0,-0.6735 0,-1.0102 0,-0.1683 0.05324,-0.3453 0,-0.5051 -0.03765,-0.1129 -0.336717,-0.1683 -0.252538,-0.2525 0.08418,-0.084 0.199299,0.1461 0.252538,0.2525 0.119048,0.2381 0.208776,0.4951 0.252539,0.7577 0.192652,1.1559 -0.03066,0.3751 -0.252539,1.2626 -0.04083,0.1634 0,0.3368 0,0.5051 0,0.5893 0,1.1785 0,1.7678 0,2.4412 0,4.8824 0,7.3236 0,0.2525 0,0.5051 0,0.7576 0,0.1684 0.04083,0.3418 0,0.5051 -0.04565,0.1826 -0.206885,0.3225 -0.252538,0.5051 -0.04083,0.1633 0,0.3367 0,0.505 0,0.1684 -0.04083,0.3418 0,0.5051 0.04565,0.1826 0.193015,0.3265 0.252538,0.5051 0.02662,0.08 0,0.1684 0,0.2525 0,0.3368 0,0.6735 0,1.0102 0,1.0101 0,2.0203 0,3.0304 0,1.0944 0,2.1887 0,3.283 0,0.1684 0,0.3368 0,0.5051 0,0.084 -0.03765,0.1773 0,0.2526 0.05324,0.1064 0.214892,0.1396 0.252539,0.2525 0.05324,0.1597 0,0.3367 0,0.5051 0,0.084 0.02662,0.1726 0,0.2525 -0.05952,0.1786 -0.193015,0.3265 -0.252539,0.5051 -0.05304,0.1591 0,1.3224 0,1.5152 0,0.8418 0,1.6836 0,2.5254 0,0.084 0,0.1684 0,0.2525 0,0.084 0.05952,0.193 0,0.2526 -0.05952,0.06 -0.252538,-0.084 -0.252538,0 0,0.6969 0.252538,-0.1919 0.252538,0.505 0,0.093 -0.01016,1 0,1.0102 0.05952,0.06 0.193015,-0.06 0.252539,0 0.05952,0.06 0.08418,0.2525 0,0.2525 -0.08418,0 0,-0.1683 0,-0.2525 0,-0.084 0,-0.1684 0,-0.2525 0,-0.2526 0,-0.5051 0,-0.7577 0,-0.3367 -0.05536,-0.678 0,-1.0101 0.03095,-0.1857 0.215623,-0.3205 0.252538,-0.5051 0.04953,-0.2476 -0.06938,-0.5148 0,-0.7576 0.155133,-0.543 0.505076,-1.0102 0.757614,-1.5152 0.08418,-0.1684 0.221593,-0.3194 0.252538,-0.5051 0.05536,-0.3321 -0.06603,-0.68 0,-1.0102 0.02335,-0.1167 0.214892,-0.1396 0.252538,-0.2525 0.05324,-0.1597 -0.04083,-0.3417 0,-0.5051 0.06843,-0.2737 0.757615,-1.3335 0.757615,-1.5152 0,-0.3471 -0.252538,-0.6631 -0.252538,-1.0102 0,-0.1882 0.182631,-0.3303 0.252538,-0.505 0.09886,-0.2472 0.147677,-0.513 0.252538,-0.7576 0.148295,-0.3461 0.401654,-0.6482 0.505076,-1.0102 0.0058,-0.02 -0.0056,-1.4588 0,-1.5152 0.05923,-0.5923 0.186805,-1.1762 0.252538,-1.7678 0.03719,-0.3346 0,-0.6734 0,-1.0101 0,-0.5893 0,-1.1786 0,-1.7678 0,-2.0203 0,-4.0406 0,-6.0609 0,-0.926 0,-1.852 0,-2.7779 0,-0.1806 -0.04309,-1.386 0,-1.5153 0.03765,-0.1129 0.199299,-0.146 0.252538,-0.2525 0.03843,-0.077 0,-0.6439 0,-0.7576 0,-0.5051 0,-1.0102 0,-1.5153 0,-0.084 -0.08418,-0.2525 0,-0.2525 0.08418,0 0,0.1684 0,0.2525 0,0.2526 0,0.5051 0,0.7577 0,0.1683 0,0.3367 0,0.505 0,0.1684 -0.04083,0.3418 0,0.5051 0.04565,0.1826 0.206886,0.3225 0.252539,0.5051 0.04083,0.1633 0,0.3367 0,0.5051 0,0.505 -0.05026,1.0126 0,1.5152 0.05923,0.5923 0.193309,1.1755 0.252538,1.7678 0.05026,0.5025 -0.05026,1.0126 0,1.5152 0.05923,0.5923 0.186805,1.1762 0.252538,1.7678 0.04648,0.4183 0,0.8417 0,1.2626 0,0.6735 0,1.3469 0,2.0204 0,0.4208 -0.06919,0.8475 0,1.2626 0.04376,0.2626 0.200332,0.4966 0.252538,0.7577 0.0547,0.2734 0,1.4978 0,1.7677 0,0.1928 -0.05304,1.3561 0,1.5153 0.05952,0.1785 0.252538,0.3168 0.252538,0.505 0,0.1191 -0.252538,0.1335 -0.252538,0.2526 0,0.1882 0.206885,0.3224 0.252538,0.505 0.04811,0.1925 0,1.5065 0,1.7678 0,0.5893 0,1.1785 0,1.7678 0,0.1683 0,0.3367 0,0.5051 0,0.084 -0.03765,0.1772 0,0.2525 0.05324,0.1065 0.252538,0.1335 0.252538,0.2525 0,0.6969 -0.252538,-0.1918 -0.252538,0.5051 0,0.4209 0,0.8418 0,1.2627 0,0.2525 -0.07986,0.518 0,0.7576 0.03765,0.1129 0.199299,0.1461 0.252538,0.2525 0.0685,0.137 -0.0691,0.9411 0,1.0102 0.05952,0.06 0.214892,-0.075 0.252538,0 0.07529,0.1506 0,0.3367 0,0.5051 0,0.084 0.02662,0.1727 0,0.2525 -0.05952,0.1786 -0.252538,0.3169 -0.252538,0.5051 0,0.1882 0.193015,0.3265 0.252538,0.5051 0.02662,0.08 0,0.1683 0,0.2525 0,0.084 0.08418,0.2525 0,0.2525 -0.08418,0 0,-0.1683 0,-0.2525 0,-0.084 -0.03765,-0.1772 0,-0.2525 0.425104,-0.8502 0.249922,0.7759 0.505077,-1.0102 0.04762,-0.3333 -0.04762,-0.6768 0,-1.0101 0.03765,-0.2636 0.194791,-0.4978 0.252538,-0.7577 0.07086,-0.3188 0.505076,-3.0816 0.505076,-3.2829 0,-0.4293 -0.252538,-0.8335 -0.252538,-1.2627 0,-0.1883 0.211705,-0.3214 0.252538,-0.5051 0.129125,-0.5811 0.19331,-1.1755 0.252538,-1.7678 0.02513,-0.2513 0,-0.5051 0,-0.7576 0,-0.8418 -0.06991,-1.6865 0,-2.5254 0.03565,-0.4277 0.213678,-0.8352 0.252538,-1.2627 0.156334,-1.7196 -0.182388,-1.4591 0,-3.283 0.02649,-0.2648 0.168359,-0.505 0.252539,-0.7576 0.08418,-0.5051 0.213266,-1.0047 0.252538,-1.5152 0.04519,-0.5875 0,-1.1785 0,-1.7678 0,-0.9259 0,-1.8519 0,-2.7779 0,-0.3367 0,-0.6734 0,-1.0101 0,-0.1684 0,-0.3368 0,-0.5051 0,-0.084 0.02662,-0.1727 0,-0.2526 -0.327831,-0.9835 -0.252538,-0.024 -0.252538,-1.0101 0,-0.061 -0.0081,-0.7495 0,-0.7576 0.05952,-0.06 0.193014,0.059 0.252538,0 0.05952,-0.06 -0.05952,-0.193 0,-0.2526 0.05952,-0.06 0.193014,0.06 0.252538,0 0.05952,-0.06 0.05952,-0.193 0,-0.2525 -0.05952,-0.059 -0.225918,-0.08 -0.252538,0 -0.07986,0.2396 0,0.5051 0,0.7576 0,4.3096 -0.07143,-1.5765 0.252538,3.283 0.0448,0.672 0,1.3469 0,2.0203 0,1.3469 0,2.6938 0,4.0406 0,0.4209 -0.05221,0.8451 0,1.2627 0.03302,0.2642 0.214892,0.4941 0.252538,0.7576 0.04762,0.3334 0,0.6735 0,1.0102 0,0.2525 0,0.5051 0,0.7576 0,1.3469 0,2.6937 0,4.0406 0,0.3845 -0.04919,1.7252 0,2.0203 0.03095,0.1857 0.215623,0.3205 0.252538,0.5051 0.08254,0.4127 0,0.8418 0,1.2627 0,0.8418 0,1.6836 0,2.5254 0,0.7576 0,1.5152 0,2.2728 0,0.084 -0.05952,0.193 0,0.2525 0.05952,0.06 0.193014,-0.06 0.252538,0 0.05952,0.06 0,0.1684 0,0.2526 0,0.084 0.03765,0.1772 0,0.2525 -0.05324,0.1065 -0.252538,0.1335 -0.252538,0.2526 0,0.119 0.168359,0.1683 0.252538,0.2525 0.08418,0.084 0.133491,0.2525 0.252538,0.2525 0.08418,0 0.02662,-0.1726 0,-0.2525 -0.05952,-0.1786 -0.206885,-0.3225 -0.252538,-0.5051 -0.116279,-0.4651 0.198884,-1.1396 0.252538,-1.5152 0.03571,-0.25 -0.02789,-0.5066 0,-0.7576 0.05655,-0.5089 0.213267,-1.0047 0.252538,-1.5153 0.04519,-0.5875 -0.06507,-1.1821 0,-1.7677 0.150925,-1.3583 0.505077,0.5434 0.505077,-1.2627 0,-0.5953 -0.252538,-1.1725 -0.252538,-1.7678 0,-0.3764 0.443186,-0.6388 0.505076,-1.0101 0.08303,-0.4982 0,-1.0102 0,-1.5153 0,-0.084 -0.05952,-0.193 0,-0.2525 0.133099,-0.1331 0.400664,-0.096 0.505076,-0.2525 0.09339,-0.1401 0,-0.3368 0,-0.5051 0,-0.5051 0,-1.0102 0,-1.5152 0,-0.1684 -0.03302,-0.34 0,-0.5051 0.05221,-0.261 0.214892,-0.4941 0.252538,-0.7576 0.08333,-0.5834 -0.09687,-1.1866 0,-1.7678 0.04376,-0.2626 0.214892,-0.4941 0.252538,-0.7576 0.04762,-0.3333 -0.04762,-0.6768 0,-1.0102 0.03765,-0.2635 0.200333,-0.4966 0.252539,-0.7576 0.03302,-0.1651 0,-0.3367 0,-0.5051 0,-0.3367 0,-0.6734 0,-1.0101 0,-0.4209 0,-0.8418 0,-1.2627 0,-0.1684 0,-0.3367 0,-0.5051 0,-0.084 0.02662,-0.1727 0,-0.2525 -0.05952,-0.1786 -0.215623,-0.3205 -0.252539,-0.5051 -0.04953,-0.2476 0,-0.5051 0,-0.7576 0,-0.5051 0,-1.0102 0,-1.5152 0,-0.1684 0.04083,-0.3418 0,-0.5051 -0.290184,-1.1607 -0.252538,-0.057 -0.252538,-0.7576 0,-0.084 -0.08418,-0.2526 0,-0.2526 0.08418,0 0,0.1684 0,0.2526 0,0.1683 0,0.3367 0,0.505 0,0.5051 0,1.0102 0,1.5153 0,1.2627 0,2.5254 0,3.7881 0,0.5892 0,1.1785 0,1.7677 0,0.6735 0.03955,1.348 0,2.0203 -0.152301,2.5892 -0.274336,1.7332 -0.505076,4.0406 -0.02513,0.2513 0,0.5051 0,0.7576 0,0.5893 0,1.1786 0,1.7678 0,1.6836 0,3.3672 0,5.0508 0,0.5051 0,1.0101 0,1.5152 0,0.1684 0,0.3367 0,0.5051 0,0.1683 0.04083,0.3417 0,0.5051 -0.06648,0.2659 -0.352583,0.4574 -0.252538,0.7576 0.05952,0.1785 0.193014,0.3265 0.252538,0.505 0.02662,0.08 -0.02662,0.1727 0,0.2526 0.05952,0.1786 0.206885,0.3225 0.252538,0.5051 0.08167,0.3266 -0.106479,0.6907 0,1.0101 0.03765,0.113 0.199299,0.1461 0.252538,0.2526 0.03765,0.075 -0.05952,0.193 0,0.2525 0.05952,0.06 0.252538,0.084 0.252538,0 0,-0.2662 -0.208775,-0.495 -0.252538,-0.7576 -0.104267,-0.6256 0.08205,-1.1711 0.252538,-1.7678 0.07313,-0.2559 0.252539,-0.4914 0.252539,-0.7576 0,-0.512 -0.252539,-1.0032 -0.252539,-1.5152 0,-0.1883 0.215623,-0.3205 0.252539,-0.5051 0.04953,-0.2476 -0.04953,-0.51 0,-0.7576 0.03692,-0.1846 0.221593,-0.3194 0.252538,-0.5051 0.08303,-0.4982 0,-1.0102 0,-1.5152 0,-0.1684 -0.02768,-0.339 0,-0.5051 0.05706,-0.3424 0.195478,-0.6678 0.252538,-1.0102 0.02768,-0.166 0.01524,-0.3374 0,-0.505 -0.06901,-0.7592 -0.252538,-1.5106 -0.252538,-2.2729 0,-0.3471 0.252538,-0.663 0.252538,-1.0101 0,-0.2662 -0.208776,-0.4951 -0.252538,-0.7576 -0.04152,-0.2491 0,-0.5051 0,-0.7577 0,-0.4209 0,-0.8418 0,-1.2626 0,-0.1684 -0.04083,-0.3418 0,-0.5051 0.04565,-0.1826 0.252538,-0.3169 0.252538,-0.5051 0,-0.1882 -0.215623,-0.3205 -0.252538,-0.5051 -0.04902,-0.2451 0,-1.7206 0,-2.0203 0,-0.5051 0,-1.0101 0,-1.5152 0,-0.084 -0.08418,-0.2525 0,-0.2525 0.08418,0 0,0.1683 0,0.2525 0,0.1683 0,0.3367 0,0.5051 0,0.8418 -0.08376,1.6877 0,2.5253 0.221022,2.2103 0.61538,-1.3555 0.252538,2.2729 -0.03454,0.3453 -0.203454,0.6666 -0.252538,1.0101 -0.03571,0.25 0.04152,0.5086 0,0.7577 -0.04376,0.2625 -0.214892,0.494 -0.252538,0.7576 -0.04762,0.3333 0,0.6734 0,1.0101 0,0.6735 0,1.3469 0,2.0203 0,0.2526 0.04953,0.51 0,0.7576 -0.03692,0.1846 -0.221594,0.3194 -0.252539,0.5051 -0.05536,0.3322 0,0.6735 0,1.0102 0,0.4209 0,0.8418 0,1.2627 0,0.7003 -0.03765,-0.4032 0.252539,0.7576 0.04083,0.1633 -0.05324,0.3453 0,0.5051 0.03765,0.1129 0.199298,0.146 0.252538,0.2525 0.07518,0.1503 -0.07087,1.0501 0,1.2627 0.05952,0.1786 0.252538,0.3168 0.252538,0.5051 0,0.119 -0.252538,0.1334 -0.252538,0.2525 0,0.119 0.168358,0.1684 0.252538,0.2525 0.08418,0.084 0.13349,0.2526 0.252538,0.2526 0.08418,0 -0.02662,-0.1727 0,-0.2526 0.336718,-1.0101 0.08418,-0.084 0.757614,-0.7576 0.1331,-0.1331 0.148127,-0.3484 0.252539,-0.5051 0.06603,-0.099 0.168358,-0.1683 0.252538,-0.2525 0.08418,-0.3367 0.123635,-0.6879 0.252538,-1.0101 0.04421,-0.1106 0.168359,-0.1684 0.252538,-0.2526 0.08418,-0.2525 0.179408,-0.5016 0.252538,-0.7576 0.09535,-0.3337 0.195479,-0.6678 0.252538,-1.0102 0.05536,-0.3321 0,-0.6734 0,-1.0101 0,-0.084 -0.02662,-0.1727 0,-0.2525 0.05952,-0.1786 0.193015,-0.3265 0.252538,-0.5051 0.08945,-0.2684 -0.08945,-0.7418 0,-1.0102 0.03765,-0.1129 0.214892,-0.1396 0.252538,-0.2525 0.05324,-0.1597 -0.03302,-0.34 0,-0.5051 0.05221,-0.261 0.200333,-0.4966 0.252539,-0.7576 0.03302,-0.1651 -0.02768,-0.339 0,-0.5051 0.05706,-0.3423 0.195478,-0.6678 0.252538,-1.0101 0.02768,-0.1661 -0.04083,-0.3418 0,-0.5051 0.04565,-0.1826 0.206885,-0.3225 0.252538,-0.5051 0.04083,-0.1633 0,-0.3367 0,-0.5051 0,-0.6734 0,-1.3468 0,-2.0203 0,-0.084 -0.02042,-0.1708 0,-0.2525 0.06456,-0.2583 0.153674,-0.5105 0.252538,-0.7576 0.06991,-0.1748 0.206885,-0.3225 0.252538,-0.5051 0.04083,-0.1633 0,-0.3367 0,-0.5051 0,-0.505 0,-1.0101 0,-1.5152 0,-0.1684 -0.05324,-0.3454 0,-0.5051 0.03765,-0.1129 0.199299,-0.146 0.252538,-0.2525 0.03765,-0.075 0,-0.1684 0,-0.2525 0,-0.1684 -0.05324,-0.3454 0,-0.5051 0.03765,-0.113 0.186503,-0.1535 0.252538,-0.2526 0.104412,-0.1566 0.193015,-0.3265 0.252539,-0.505 0.02662,-0.08 0,-0.1684 0,-0.2526 0,-0.1683 0,-0.3367 0,-0.5051 0,-0.084 0.05952,-0.312 0,-0.2525 -0.585742,0.5857 0,1.3458 0,2.0203 0,0.5953 -0.203107,1.1746 -0.252539,1.7678 -0.03495,0.4194 0,0.8418 0,1.2627 0,0.8418 0,1.6836 0,2.5254 0,2.6095 0,5.2191 0,7.8286 0,1.4311 0,2.8621 0,4.2932 0,0.1683 0,0.3367 0,0.5051 0,0.084 -0.05952,0.193 0,0.2525 0.05952,0.06 0.193015,-0.06 0.252539,0 0.119047,0.119 -0.119048,0.386 0,0.5051 0.05952,0.059 0.193014,0.059 0.252538,0 0.05952,-0.06 -0.04669,-0.1825 0,-0.2526 0.132071,-0.1981 0.373005,-0.3069 0.505076,-0.505 0.04669,-0.07 -0.02662,-0.1727 0,-0.2526 0.05952,-0.1786 0.168359,-0.3367 0.252538,-0.5051 0.20609,-0.4121 0.427061,-0.7946 0.505076,-1.2626 0.04152,-0.2491 -0.09379,-0.5232 0,-0.7577 0.08843,-0.221 0.411286,-0.2862 0.505077,-0.505 1.303635,-3.0419 0.04964,-0.5008 0.252538,-1.5153 0.06807,-0.3403 0.157188,-0.6764 0.252538,-1.0101 0.08418,-0.2526 0.168359,-0.5051 0.252538,-0.7576 0,-0.1684 -0.04083,-0.3418 0,-0.5051 0.04565,-0.1826 0.252538,-0.3169 0.252538,-0.5051 0,-0.084 -0.168359,0 -0.252538,0 0,-0.1683 -0.02768,-0.339 0,-0.5051 -0.215581,-0.6414 0.375951,-0.9987 0.505076,-1.5152 0.08167,-0.3267 -0.08167,-0.6835 0,-1.0101 0.04565,-0.1827 0.168359,-0.3368 0.252538,-0.5051 0,-0.2526 -0.04953,-0.51 0,-0.7576 0.03692,-0.1846 0.168359,-0.3368 0.252539,-0.5051 0.08418,-0.2525 0.208775,-0.495 0.252538,-0.7576 0,-1.9265 -0.112939,0.1992 0.252538,-1.2627 0.04083,-0.1633 -0.09339,-0.365 0,-0.5051 0.104412,-0.1566 0.400665,-0.096 0.505076,-0.2525 0.06847,-0.1027 -0.06732,-1.1954 0,-1.2627 0.05952,-0.059 0.193015,0.059 0.252538,0 0.05952,-0.059 -0.03765,-0.1773 0,-0.2526 0.05324,-0.1064 0.199299,-0.146 0.252538,-0.2525 0.03765,-0.075 -0.05952,-0.193 0,-0.2525 0.05952,-0.06 0.193015,0.06 0.252539,0 0.05952,-0.06 -0.08418,-0.2526 0,-0.2526 0.08418,0 0,0.1684 0,0.2526 0,0.2525 0,0.505 0,0.7576 0,0.1683 0.03302,0.34 0,0.5051 -0.05221,0.261 -0.208776,0.495 -0.252539,0.7576 -0.148034,0.8882 0.400573,1.6371 0.252539,2.5254 -0.04376,0.2625 -0.252539,0.4914 -0.252539,0.7576 0,0.347 0.195479,0.6678 0.252539,1.0101 0.02768,0.1661 0,0.3367 0,0.5051 0,0.5051 0.05026,1.0127 0,1.5152 -0.03454,0.3454 -0.252539,0.6631 -0.252539,1.0102 0,0.4292 0.252539,0.8334 0.252539,1.2627 0,0.1882 -0.221594,0.3194 -0.252539,0.505 -0.06565,0.394 0,1.5155 0,2.0203 0,1.5153 0,3.0305 0,4.5457 0,0.4209 0,0.8418 0,1.2627 0,0.1684 0,0.3367 0,0.5051 0,0.084 0.08418,0.2525 0,0.2525 -0.08418,0 0,-0.1683 0,-0.2525 0,-0.084 -0.03765,-0.1772 0,-0.2525 0.05324,-0.1065 0.214892,-0.1396 0.252539,-0.2526 0.05324,-0.1597 0,-0.3367 0,-0.5051 0,-0.1683 0,-0.3367 0,-0.505 0,-1.5103 -0.0692,-1.1693 0.252538,-2.7779 0.06807,-0.3404 0.252538,-0.6631 0.252538,-1.0102 0,-0.4292 -0.252538,-0.8335 -0.252538,-1.2627 0,-0.2662 0.252538,-0.4914 0.252538,-0.7576 0,-0.1882 -0.252538,-0.3168 -0.252538,-0.5051 0,-0.1882 0.206885,-0.3224 0.252538,-0.5051 0.109617,-0.4384 -0.109617,-1.0767 0,-1.5152 0.384849,-1.5394 0.08676,0.667 0.757614,-1.0101 0.09379,-0.2345 -0.04953,-0.51 0,-0.7577 0.03692,-0.1845 0.193015,-0.3265 0.252538,-0.505 0.702187,-0.3365 0.148434,-0.8463 0.252539,-1.2627 0.06456,-0.2583 0.200332,-0.4966 0.252538,-0.7576 0.0547,-0.2735 0,-1.4978 0,-1.7678 0,-0.3367 -0.04762,-0.6768 0,-1.0102 0.03765,-0.2635 0.252538,-0.4914 0.252538,-0.7576 0,-0.2662 -0.200332,-0.4966 -0.252538,-0.7576 -0.03302,-0.1651 0,-0.3367 0,-0.5051 0,-0.4209 0,-0.8418 0,-1.2626 0,-0.2526 -0.02513,-0.5064 0,-0.7577 0.05923,-0.5922 0.252538,-1.1725 0.252538,-1.7677 0,-0.2662 -0.208776,-0.4951 -0.252538,-0.7576 -0.04152,-0.2491 0,-0.5051 0,-0.7577 0,-0.5892 0,-1.1785 0,-1.7677 0,-0.5893 0,-1.1785 0,-1.7678 0,-0.084 0,-0.1684 0,-0.2525 0,-0.084 -0.08418,-0.2526 0,-0.2526 0.08418,0 0,0.1684 0,0.2526 0,0.505 0,1.0101 0,1.5152 0,1.5152 0,3.0305 0,4.5457 0,3.4513 0,6.9027 0,10.354 0,2.0204 0,4.0407 0,6.061 0,0.8418 0,1.6835 0,2.5253 0,0.2526 0.04953,0.51 0,0.7577 -0.03692,0.1845 -0.206886,0.3224 -0.252538,0.505 -0.04083,0.1634 0,0.3368 0,0.5051 0,0.4209 0,0.8418 0,1.2627 0,0.7576 0,1.5152 0,2.2728 0,0.2068 -0.05454,1.0991 0,1.2627 0.05952,0.1786 0.193014,0.3265 0.252538,0.5051 0.0579,0.1737 -0.0745,0.6086 0,0.7576 0.05324,0.1065 0.199298,0.1461 0.252538,0.2526 0.03765,0.075 0,0.1683 0,0.2525 0,0.084 0.08418,0.2525 0,0.2525 -0.08418,0 -0.01651,-0.17 0,-0.2525 0.06807,-0.3403 0.195478,-0.6678 0.252538,-1.0102 0.06919,-0.4151 -0.04188,-0.8438 0,-1.2626 0.05923,-0.5923 0.135802,-1.1841 0.252538,-1.7678 0.104412,-0.5221 0.400665,-0.9932 0.505076,-1.5152 0.347784,-1.739 0.252538,-3.009 0.252538,-4.7983 0,-6.745 -0.115562,2.123 0.252539,-3.0304 0.05398,-0.7557 0,-1.5152 0,-2.2729 0,-0.8418 0,-1.6835 0,-2.5253 0,-1.1786 0,-2.3571 0,-3.5356 0,-0.3367 -0.05536,-0.678 0,-1.0101 0.03095,-0.1857 0.206885,-0.3225 0.252538,-0.5051 0.04083,-0.1633 -0.04083,-0.3418 0,-0.5051 0.04565,-0.1826 0.206885,-0.3224 0.252538,-0.5051 0.04083,-0.1633 -0.07529,-0.3545 0,-0.505 0.106479,-0.213 0.398597,-0.2922 0.505076,-0.5051 0.07529,-0.1506 0,-0.3367 0,-0.5051 0,-0.2525 -0.04953,-0.51 0,-0.7576 0.03692,-0.1846 0.221593,-0.3194 0.252538,-0.5051 0.05361,-0.3216 0,-1.8418 0,-2.2728 0,-0.1684 -0.04083,-0.3418 0,-0.5051 0.04565,-0.1826 0.215623,-0.3205 0.252538,-0.5051 0.04953,-0.2476 0,-0.5051 0,-0.7576 0,-0.7576 0,-1.5152 0,-2.2728 0,-0.6735 0,-1.3469 0,-2.0203 0,-0.1684 0,-0.3368 0,-0.5051 0,-0.084 0,-0.3367 0,-0.2526 0,0.7577 0,1.5153 0,2.2729 0,0.2525 -0.02789,0.5066 0,0.7576 0.05655,0.5089 0.220598,1.0042 0.252539,1.5152 0.12577,2.0124 -0.105977,4.0474 0,6.061 0.04446,0.8448 0.205611,1.6806 0.252538,2.5253 0.03735,0.6724 0,1.3469 0,2.0203 0,1.5994 0,3.1989 0,4.7983 0,1.2627 0,2.5253 0,3.788 0,0.4209 0,0.8418 0,1.2627 0,0.2526 0.02513,0.5064 0,0.7576 -0.08418,0.5893 -0.168359,1.1785 -0.252538,1.7678 -0.08418,0.1684 -0.215623,0.3205 -0.252539,0.5051 -0.04953,0.2476 0.02513,0.5063 0,0.7576 -0.05923,0.5923 -0.193309,1.1755 -0.252538,1.7678 -0.02513,0.2512 0,0.505 0,0.7576 0,0.7576 0,1.5152 0,2.2728 0,0.9865 -0.07529,0.027 0.252538,1.0102 0.04749,0.1425 0,0.5916 0,0.7576 0,0.1683 0,0.3367 0,0.5051 0,0.084 0.08418,0.2525 0,0.2525 -0.08418,0 0,-0.1684 0,-0.2525 0,-0.3368 0,-0.6735 0,-1.0102 0,-0.2525 0,-0.5051 0,-0.7576 0.08418,-0.1684 0.225919,-0.3187 0.252539,-0.5051 0.05952,-0.4166 -0.03811,-0.8435 0,-1.2627 0.04636,-0.5099 0.225625,-1.0039 0.252538,-1.5152 0.143452,-1.7642 -0.08828,-3.5377 0,-5.3033 0.05062,-1.0124 0.168358,-2.0203 0.252538,-3.0305 0,-1.0943 -0.05205,-2.1899 0,-3.283 0.04934,-1.036 0.342192,-2.4767 0.505076,-3.5355 0.09051,-0.5883 0.108172,-1.1903 0.252538,-1.7678 0.109946,-0.4397 0.3858,-0.8253 0.505077,-1.2626 0.586973,-0.7885 0.06902,-1.6996 0.252538,-2.5254 0.09834,-0.4426 0.345905,-0.8383 0.505076,-1.2627 0.09347,-0.2493 0.232122,-0.4922 0.252538,-0.7576 0,-7.7128 -0.266198,-0.1706 0.252538,-3.283 0.04152,-0.2491 -0.03571,-0.5076 0,-0.7576 0.04909,-0.3436 0.203454,-0.6666 0.252538,-1.0102 0.07143,-0.5 -0.07143,-1.0152 0,-1.5152 0.04908,-0.3436 0.203454,-0.6666 0.252539,-1.0102 0.03571,-0.25 -0.02097,-0.5059 0,-0.7576 0.0633,-0.7596 0.194074,-1.5128 0.252538,-2.2728 0.03874,-0.5036 0,-1.0102 0,-1.5153 0,-0.2489 0,-0.75397 0,-0.50497 0,4.71397 0,9.42807 0,14.14207 0,0.8418 0,1.6836 0,2.5254 0,0.6734 -0.03955,1.348 0,2.0203 0.04476,0.7609 0.204988,1.512 0.252538,2.2728 0.03676,0.5881 -0.04894,1.1806 0,1.7678 0.03565,0.4277 0.213677,0.8352 0.252538,1.2627 0.04573,0.503 0,1.0101 0,1.5152 0,0.5893 0,1.1785 0,1.7678 0,0.4209 -0.05221,0.845 0,1.2627 0.359017,2.8721 0.252538,-1.7792 0.252538,1.7677 0,1.2798 -0.07529,-0.3011 0.252538,1.0102 0.06125,0.245 0,0.5051 0,0.7576 0,0.5893 0,1.1785 0,1.7678 0,0.095 -0.0063,1.2564 0,1.2627 0.05952,0.059 0.193015,-0.06 0.252538,0 0.05952,0.059 0.08418,0.2525 0,0.2525 -0.08418,0 0.05952,-0.193 0,-0.2525 -0.05952,-0.06 -0.193014,0.059 -0.252538,0 -0.05952,-0.06 0.02662,-0.1727 0,-0.2526 -0.05952,-0.1785 -0.221593,-0.3194 -0.252538,-0.5051 -0.05536,-0.3321 0,-0.6734 0,-1.0101 0,-0.084 0.02042,-0.1709 0,-0.2525 -0.359018,-1.4361 -0.252538,-0.037 -0.252538,-1.7678 0,-1.4311 0,-2.8621 0,-4.2932 0,-0.3367 0,-0.6734 0,-1.0101 0,-0.4209 -0.05952,-0.846 0,-1.2627 0.02662,-0.1863 0.231751,-0.318 0.252538,-0.5051 0.08366,-0.753 0,-1.5152 0,-2.2728 0,-0.2526 -0.03571,-0.5076 0,-0.7576 0.04908,-0.3436 0.195479,-0.6678 0.252538,-1.0102 0.02768,-0.1661 0,-0.3367 0,-0.5051 0,-0.8418 -0.08376,-1.6877 0,-2.5253 0.02649,-0.2649 0.200332,-0.4966 0.252538,-0.7577 0.03302,-0.165 -0.04083,-0.3417 0,-0.505 0.04565,-0.1826 0.168359,-0.3368 0.252538,-0.5051 0.08418,-0.2525 0.200333,-0.4966 0.252539,-0.7576 0.03302,-0.1651 -0.04083,-0.3418 0,-0.5051 0.04565,-0.1826 0.193014,-0.3265 0.252538,-0.5051 0.02662,-0.08 -0.02662,-0.1727 0,-0.2525 0.07432,-0.223 0.624391,-1.3154 0.757614,-1.5152 0.06604,-0.099 0.214892,-0.1396 0.252538,-0.2526 0.05324,-0.1597 -0.05324,-0.3453 0,-0.5051 0.312062,-0.9361 0.252538,0.3079 0.252538,-0.505 0,-0.084 0,-0.1684 0,-0.2526 0,-0.084 -0.08418,-0.2525 0,-0.2525 0.119048,0 0.191289,0.1504 0.252539,0.2525 0.09862,0.1644 0.757614,1.4195 0.757614,1.7678 0,0.2662 -0.252538,0.4914 -0.252538,0.7576 0,3.247 0.194082,0.6594 0.505076,2.5254 0.04152,0.2491 -0.01937,0.5058 0,0.7576 0.06488,0.8435 0.205611,1.6807 0.252538,2.5254 0.03736,0.6724 0,1.3469 0,2.0203 0,1.0101 0,2.0203 0,3.0304 0,2.6096 0,5.2192 0,7.8287 0,0.6735 0,1.3469 0,2.0203 0,0.2526 0.04953,0.51 0,0.7576 -0.03692,0.1846 -0.215623,0.3205 -0.252538,0.5051 -0.04953,0.2477 0,0.5051 0,0.7576 0,0.5893 0,1.1786 0,1.7678 0,0.1684 0,0.3367 0,0.5051 0,0.1683 -0.04083,0.3417 0,0.5051 0.04565,0.1826 0.193014,0.3265 0.252538,0.505 0.04749,0.1425 0,0.5917 0,0.7576 0,0.084 0.08418,0.2526 0,0.2526 -0.08418,0 0,-0.1684 0,-0.2526 0,-0.3367 0,-0.6734 0,-1.0101 0,-0.5051 -0.05026,-1.0127 0,-1.5152 0.05923,-0.5923 0.19331,-1.1755 0.252538,-1.7678 0.02513,-0.2513 0,-0.5051 0,-0.7576 0,-1.3469 -0.07471,-2.6958 0,-4.0406 0.03765,-0.6777 0.204185,-1.3434 0.252539,-2.0203 0.03598,-0.5038 0,-1.0102 0,-1.5153 0,-2.0203 0,-4.0406 0,-6.0609 0,-1.0943 -0.06826,-2.1908 0,-3.283 0.0166,-0.2656 0.194791,-0.4977 0.252538,-0.7576 0.730437,-3.287 -0.33952,0.3741 0.757614,-3.283 0.07649,-0.2549 0.133491,-0.5195 0.252538,-0.7576 0.135735,-0.2715 0.385517,-0.4786 0.505076,-0.7576 0.485482,-1.1328 0.01364,-0.7849 0.505077,-1.7678 0.135735,-0.2714 0.392354,-0.4758 0.505076,-0.7576 0.06253,-0.1563 0,-0.3367 0,-0.5051 0,-0.2525 0,-0.505 0,-0.7576 0,-0.084 -0.03765,-0.1772 0,-0.2525 0.05324,-0.1065 0.252538,-0.1335 0.252538,-0.2526 0,-0.099 -0.473199,-0.2844 -0.252538,-0.505 0.133099,-0.1331 0.371977,-0.1195 0.505076,-0.2526 0.05952,-0.059 -0.02662,-0.1726 0,-0.2525 0.05952,-0.1786 0.119439,-0.372 0.252538,-0.5051 0.05952,-0.059 0.193015,-0.059 0.252539,0 0.05952,0.06 0,0.1684 0,0.2526 0,0.9259 0,1.8519 0,2.7779 0,0.7576 0.04726,1.5167 0,2.2728 -0.312062,4.993 -0.252539,-0.8134 -0.252539,3.0305 0,2.3846 -0.07538,2.3388 0.252539,4.7982 0.05673,0.4255 0.227332,0.8342 0.252538,1.2627 0.05932,1.0084 0,2.0203 0,3.0304 0,1.2627 0,2.5254 0,3.7881 0,0.5051 -0.03151,1.0112 0,1.5152 0.05277,0.8444 0.308812,1.6813 0.252538,2.5254 -0.03016,0.4523 -0.38054,0.8268 -0.505076,1.2627 -0.04625,0.1619 0.02768,0.339 0,0.5051 -0.05706,0.3424 -0.195479,0.6678 -0.252539,1.0101 -0.29322,1.7594 0.252539,-0.8373 0.252539,1.0102 0,0.119 -0.252539,0.1335 -0.252539,0.2525 0,0.4107 0.4732,0.064 0.252539,0.5051 -0.05324,0.1065 -0.199299,0.1461 -0.252539,0.2526 -0.03765,0.075 0,0.1683 0,0.2525 0,0.084 0,0.1684 0,0.2525 0,0.3367 0,0.6735 0,1.0102 0,0.084 0,0.1683 0,0.2525 0,0.084 0.05952,0.193 0,0.2526 -0.05952,0.06 -0.252538,0.084 -0.252538,0 0,-0.3471 0.195479,-0.6678 0.252538,-1.0102 0.02768,-0.1661 0,-0.3367 0,-0.5051 0,-0.5892 -0.06507,-1.1821 0,-1.7677 0.0474,-0.4266 0.213678,-0.8353 0.252539,-1.2627 0.09908,-1.0899 -0.09088,-2.1925 0,-3.283 0.302064,-3.6248 0.252538,0.4106 0.252538,-2.0203 0,-0.3367 -0.06604,-0.68 0,-1.0102 0.167512,-0.8375 0.235702,-0.5892 0.505076,-1.2627 0.145516,-0.3638 0.251256,-0.9242 0.505076,-1.2627 1.472225,-1.9629 -0.814445,1.8815 1.010153,-1.7677 0.05324,-0.1065 0.208325,-0.142 0.252538,-0.2526 0.128902,-0.3222 0.157188,-0.6764 0.252538,-1.0101 0.07313,-0.256 0.194792,-0.4978 0.252538,-0.7576 0.111078,-0.4999 0.105404,-1.0248 0.252538,-1.5153 0.108176,-0.3605 0.401655,-0.6481 0.505077,-1.0101 0.138755,-0.4857 -0.09905,-1.02 0,-1.5152 0.03692,-0.1846 0.206885,-0.3225 0.252538,-0.5051 0.04083,-0.1634 -0.05324,-0.3454 0,-0.5051 0.03765,-0.1129 0.199298,-0.1461 0.252538,-0.2525 0.07529,-0.1506 -0.119048,-0.3861 0,-0.5051 0.05952,-0.059 0.193014,0.059 0.252538,0 0.05952,-0.059 0,-0.1684 0,-0.2525 0,-0.084 0,-0.1684 0,-0.2526 0,-0.084 0,-0.1683 0,-0.2525 0,-0.084 -0.03765,-0.1773 0,-0.2526 0.05324,-0.1064 0.168359,-0.3367 0.252538,-0.2525 0.119048,0.119 0,0.3367 0,0.5051 0,0.7576 0,1.5152 0,2.2728 0,2.1045 0,4.209 0,6.3135 0,0.7576 0.05811,1.5174 0,2.2728 -0.02662,0.3461 -0.214209,0.6652 -0.252538,1.0102 -0.06507,0.5856 0,1.1785 0,1.7677 0,1.5994 0,3.1988 0,4.7983 0,0.5892 0,1.1785 0,1.7677 0,0.084 0,0.1684 0,0.2526 0,0.084 0.08418,0.2525 0,0.2525 -0.08418,0 0,-0.1684 0,-0.2525 0,-0.1684 0,-0.3368 0,-0.5051 0,-0.4209 -0.0692,-0.8475 0,-1.2627 0.04376,-0.2626 0.168359,-0.5051 0.252538,-0.7576 0.08418,-0.5893 0.203106,-1.1746 0.252538,-1.7678 0.03495,-0.4194 -0.02999,-0.8428 0,-1.2627 0.108944,-1.5252 0.308193,-2.564 0.505077,-4.0406 0.0897,-0.6727 0.119438,-1.3548 0.252538,-2.0203 0.03692,-0.1846 0.231751,-0.318 0.252538,-0.5051 0.06507,-0.5856 -0.07309,-1.183 0,-1.7677 0.01477,-0.1182 0.168359,-0.1684 0.252538,-0.2526 0,-0.505 -0.05026,-1.0126 0,-1.5152 0.109763,-1.0976 0.199509,-0.7513 0.505076,-1.5152 1.016847,-2.5421 -0.197181,0.5362 0.252538,-1.2627 0.09131,-0.3652 0.386029,-0.653 0.505077,-1.0102 0.02662,-0.08 0,-0.1683 0,-0.2525 0,-0.1684 0,-0.3367 0,-0.5051 0,-0.1683 -0.04083,-0.3417 0,-0.5051 0.119672,-0.4787 0.422189,-0.6747 0.757614,-1.0101 0.08418,-0.084 0.186502,-0.1535 0.252538,-0.2526 0.104412,-0.1566 0.168359,-0.3367 0.252538,-0.505 0.08418,-0.1684 0.193015,-0.3265 0.252538,-0.5051 0.02662,-0.08 -0.05952,-0.193 0,-0.2525 0.05952,-0.06 0.193015,0.059 0.252539,0 0.05952,-0.06 -0.08418,-0.2526 0,-0.2526 0.08418,0 0,0.1684 0,0.2526 0,0.7576 0,1.5152 0,2.2728 0,5.2191 0,10.4382 0,15.6574 0,1.0943 0,2.1886 0,3.283 0,0.061 0.0081,0.7495 0,0.7576 -0.05952,0.059 -0.193015,-0.06 -0.252539,0 -0.05952,0.059 0,0.1683 0,0.2525 0,0.084 0,0.1684 0,0.2525"
       id="path3009"
       inkscape:connector-curvature="0"
       clip-path="url(#clipPath3978)" />
    <g
       style="display:inline"
       id="g3983"
       transform="translate(-4.9999997e-8,-0.505015)"
       clip-path="url(#clipPath4002)">
      <g
         id="g3816"
         transform="translate(-2.020305,-1052.8482)">
        <path
           style="fill:none;stroke:#000000;stroke-width:0.25;stroke-linecap:butt;stroke-linejoin:miter;stroke-opacity:1"
           d="m 2.0203051,1108.8482 c 63.9999999,0 63.9999999,0 63.9999999,0"
           id="path3779"
           inkscape:connector-curvature="0" />
        <path
           inkscape:connector-curvature="0"
           id="path3795"
           d="m 2.0203051,1100.8482 c 63.9999999,0 63.9999999,0 63.9999999,0"
           style="fill:none;stroke:#000000;stroke-width:0.25;stroke-linecap:butt;stroke-linejoin:miter;stroke-opacity:1" />
        <path
           style="fill:none;stroke:#000000;stroke-width:0.25;stroke-linecap:butt;stroke-linejoin:miter;stroke-opacity:1"
           d="m 2.0203051,1092.8482 c 63.9999999,0 63.9999999,0 63.9999999,0"
           id="path3797"
           inkscape:connector-curvature="0" />
        <path
           inkscape:connector-curvature="0"
           id="path3799"
           d="m 2.0203051,1084.8482 c 63.9999999,0 63.9999999,0 63.9999999,0"
           style="fill:none;stroke:#000000;stroke-width:0.75;stroke-linecap:butt;stroke-linejoin:miter;stroke-opacity:1" />
        <path
           style="fill:none;stroke:#000000;stroke-width:0.25;stroke-linecap:butt;stroke-linejoin:miter;stroke-opacity:1"
           d="m 2.0203051,1076.8482 c 63.9999999,0 63.9999999,0 63.9999999,0"
           id="path3801"
           inkscape:connector-curvature="0" />
        <path
           inkscape:connector-curvature="0"
           id="path3803"
           d="m 2.0203051,1068.8482 c 63.9999999,0 63.9999999,0 63.9999999,0"
           style="fill:none;stroke:#000000;stroke-width:0.25;stroke-linecap:butt;stroke-linejoin:miter;stroke-opacity:1" />
        <path
           style="fill:none;stroke:#000000;stroke-width:0.25;stroke-linecap:butt;stroke-linejoin:miter;stroke-opacity:1"
           d="m 2.0203051,1060.8482 c 63.9999999,0 63.9999999,0 63.9999999,0"
           id="path3805"
           inkscape:connector-curvature="0" />
      </g>
      <path
         inkscape:connector-curvature="0"
         id="path3781"
         d="m 56.28323,988.86719 c 0,64.00001 0,64.00001 0,64.00001"
         style="fill:none;stroke:#000000;stroke-width:0.25;stroke-linecap:butt;stroke-linejoin:miter;stroke-opacity:1"
         transform="translate(0,-988.36218)" />
      <path
         style="fill:none;stroke:#000000;stroke-width:0.25;stroke-linecap:butt;stroke-linejoin:miter;stroke-opacity:1"
         d="m 48.28323,988.86719 c 0,64.00001 0,64.00001 0,64.00001"
         id="path3783"
         inkscape:connector-curvature="0"
         transform="translate(0,-988.36218)" />
      <path
         inkscape:connector-curvature="0"
         id="path3785"
         d="m 40.28323,988.86719 c 0,64.00001 0,64.00001 0,64.00001"
         style="fill:none;stroke:#000000;stroke-width:0.25;stroke-linecap:butt;stroke-linejoin:miter;stroke-opacity:1"
         transform="translate(0,-988.36218)" />
      <path
         style="fill:none;stroke:#000000;stroke-width:0.75;stroke-linecap:butt;stroke-linejoin:miter;stroke-opacity:1"
         d="m 32.28323,988.86719 c 0,64.00001 0,64.00001 0,64.00001"
         id="path3787"
         inkscape:connector-curvature="0"
         transform="translate(0,-988.36218)" />
      <path
         inkscape:connector-curvature="0"
         id="path3789"
         d="m 24.28323,988.86719 c 0,64.00001 0,64.00001 0,64.00001"
         style="fill:none;stroke:#000000;stroke-width:0.25;stroke-linecap:butt;stroke-linejoin:miter;stroke-opacity:1"
         transform="translate(0,-988.36218)" />
      <path
         style="fill:none;stroke:#000000;stroke-width:0.25;stroke-linecap:butt;stroke-linejoin:miter;stroke-opacity:1"
         d="m 16.28323,988.86719 c 0,64.00001 0,64.00001 0,64.00001"
         id="path3791"
         inkscape:connector-curvature="0"
         transform="translate(0,-988.36218)" />
      <path
         inkscape:connector-curvature="0"
         id="path3793"
         d="m 8.28323,988.86719 c 0,64.00001 0,64.00001 0,64.00001"
         style="fill:none;stroke:#000000;stroke-width:0.25;stroke-linecap:butt;stroke-linejoin:miter;stroke-opacity:1"
         transform="translate(0,-988.36218)" />
    </g>
  </g>
</svg>
